<?xml version="1.0" standalone="no"?><!DOCTYPE svg PUBLIC "-//W3C//DTD SVG 1.1//EN" "http://www.w3.org/Graphics/SVG/1.1/DTD/svg11.dtd"><svg t="1536308304527" class="icon" style="" viewBox="0 0 1024 1024" version="1.1" xmlns="http://www.w3.org/2000/svg" p-id="7981" xmlns:xlink="http://www.w3.org/1999/xlink" width="32" height="32"><defs><style type="text/css"></style></defs><path d="M821.8 767.8H107.9c-5.5 0-10-4.5-10-10V108.2c0-5.5 4.5-10 10-10h713.9c5.5 0 10 4.5 10 10v649.6c0 5.5-4.5 10-10 10z" fill="#EEEEEE" p-id="7982"></path><path d="M755.9 306.2v-67.7c0-0.4-0.1-0.8-0.2-1.1v-2.7h-0.4c-2.5-12.9-17.4-22.9-35.6-22.9H217.2c-18.2 0-33.1 10-35.6 22.9h-0.6v96.1h0.2V350c0 0.4-0.2 0.8-0.2 1.1v146.2c0 0.4 0.1 0.8 0.2 1.1v2.6h0.4c2.5 13 17.4 23 35.6 23h502.6c18.2 0 33.1-10 35.6-22.9h0.5V326.5h-0.2v-19.2c0-0.3 0.2-0.7 0.2-1.1z" fill="#5B5144" p-id="7983"></path><path d="M727.8 320.9v-59.3c0-0.3-0.1-0.7-0.1-1v-2.3h-0.3c-2.3-11.3-15.7-20.1-32.1-20.1H241.6c-16.4 0-29.9 8.7-32.1 20.1h-0.5v84.1h0.1v16.8c0 0.3-0.1 0.7-0.1 1v127.9c0 0.3 0.1 0.7 0.1 1v2.3h0.3c2.3 11.3 15.7 20.1 32.1 20.1h453.6c16.4 0 29.9-8.7 32.1-20.1h0.5V338.7h-0.1v-16.8c0-0.3 0.2-0.6 0.2-1z" fill="#3BCDAE" p-id="7984"></path><path d="M781.5 512.1c-0.1-11.3-12.4-20.4-27.6-20.4h-578c-15.2 0-27.6 9.1-27.6 20.4h633.2z" fill="#FCE38A" p-id="7985"></path><path d="M354.2 492.6c0-11.2-1.9-20.4-4.2-20.4h-87.5c-2.3 0-4.2 9.1-4.2 20.4h95.9z" fill="#FFFFFF" p-id="7986"></path><path d="M781.5 511.6c-0.1 11.3-12.4 20.4-27.6 20.4h-578c-15.2 0-27.6-9.1-27.6-20.4h633.2z" fill="#EEDBC3" p-id="7987"></path><path d="M447.9 334.8H256.4v-31.2h191.5v31.2zM384 396.7H256.4v-31.2H384v31.2z" fill="#FFFFFF" p-id="7988"></path><path d="M303.6 480.8h320.8v157.4H303.6z" fill="#78909C" p-id="7989"></path><path d="M290.5 480.8h350.9l37.1-24.9H253.4zM265.2 638.3h413.3v16H265.2z" fill="#B0BEC5" p-id="7990"></path><path d="M606 887.6V582.3c0-21 18-38.2 40-38.2h240c22 0 40 17.2 40 38.2v305.3c0 21-18 38.2-40 38.2H646c-22 0-40-17.2-40-38.2z" fill="#FFCCBC" p-id="7991"></path><path d="M878.4 732.1l-87.5-85.4v170.7l87.5-85.3z m-87.5 28.6H653.7v-57.3h137.1v57.3z" fill="#FD0000" p-id="7992"></path></svg>