<?xml version="1.0" standalone="no"?><!DOCTYPE svg PUBLIC "-//W3C//DTD SVG 1.1//EN" "http://www.w3.org/Graphics/SVG/1.1/DTD/svg11.dtd"><svg t="1536562814532" class="icon" style="" viewBox="0 0 1024 1024" version="1.1" xmlns="http://www.w3.org/2000/svg" p-id="2534" xmlns:xlink="http://www.w3.org/1999/xlink" width="32" height="32"><defs><style type="text/css"></style></defs><path d="M908.503856 464.814396c-0.460668-0.526478-0.987147-1.052956-1.513625-1.579435L833.151671 395.121851v-0.394859L538.718766 123.393316c-7.239075-6.844216-18.821594-6.975835-26.126478-0.131619L135.568123 463.103342c-0.592288 0.526478-1.184576 1.118766-1.711054 1.776864-9.608226 10.990231-14.938817 25.6-14.938817 40.933676 0 32.510026 23.823136 58.899743 53.108483 58.899743H190.190231v337.143444c0 11.51671 8.950129 20.861697 19.87455 20.861697h626.969666c10.990231 0 19.87455-9.279177 19.87455-20.861697V564.713625h13.425193c29.285347 0 53.108483-26.389717 53.108484-58.899743 0-15.399486-5.264781-29.943445-14.938818-40.999486z m-576.954242 56.72802c0-29.285347 24.547044-52.976864 54.819538-53.042673h261.59383c30.272494 0 54.753728 23.757326 54.819537 53.042673v144.189204c-0.06581 29.285347-24.547044 52.976864-54.819537 53.042673H515.751157c2.237532-3.422108 3.816967-7.239075 4.540874-11.25347l11.648329-11.253471h115.956812c17.373779 0 31.457069-13.622622 31.45707-30.469923V521.542416c0-16.781491-14.08329-30.404113-31.45707-30.404113H386.303342c-17.373779 0-31.39126 13.622622-31.45707 30.404113v144.189204c0.06581 15.267866 11.779949 28.166581 27.442674 30.075064v7.239074c0 5.528021 1.579434 10.990231 4.606684 15.728535h-0.658098c-30.272494-0.06581-54.753728-23.757326-54.753727-53.042673l0.065809-144.189204z m157.811826 210.196401l-75.615425 0.06581v-9.608226c-10.858612 0-19.677121-8.55527-19.67712-19.084833V624.732134c0-13.754242 10.332134-25.66581 24.876092-28.56144l10.595373-2.105913 22.046272 42.513111 22.046273-42.513111 10.595373 2.105913c14.478149 2.96144 24.876093 14.807198 24.876092 28.56144v63.177378l69.166067-66.928535c0.987147-0.987147 2.303342-1.513625 3.751157-1.513625 1.382005 0 2.76401 0.526478 3.751157 1.513625 0.987147 0.987147 1.579434 2.237532 1.579434 3.619537s-0.592288 2.698201-1.579434 3.619537l-76.668381 74.16761v0.658097c0 10.529563-8.818509 19.084833-19.677121 19.084833l-0.065809 9.608226z m-63.045759-177.357326c0.987147-14.34653 9.279177-23.823136 25.53419-23.823136 16.649871 0 23.954756 10.924422 24.876093 23.823136 4.211825 0 4.475064 5.396401 3.948586 9.410797-0.526478 3.816967-3.685347 8.48946-6.778406 10.068895-9.344987 27.508483-35.405656 27.508483-44.816452 0-3.093059-1.579434-6.251928-6.251928-6.778407-10.068895-0.526478-4.014396-0.197429-9.410797 4.014396-9.410797z m17.834448 276.466838H331.549614v-45.869409c0-9.213368 3.751157-18.031877 10.529563-24.547043 6.712596-6.515167 15.860154-10.134704 25.336761-10.134705h40.867867c9.476607 0 18.624165 3.619537 25.336761 10.134705s10.529563 15.333676 10.463753 24.547043v45.869409z m129.908483 0H461.458098v-45.869409c0-9.213368 3.751157-18.031877 10.529563-24.547043 6.712596-6.515167 15.860154-10.134704 25.336761-10.134705h40.867866c9.476607 0 18.624165 3.685347 25.336761 10.134705 6.712596 6.515167 10.529563 15.333676 10.529563 24.547043v45.869409z m129.908483 0H591.366581v-45.869409c0-9.213368 3.751157-18.031877 10.529563-24.547043 6.712596-6.515167 15.860154-10.134704 25.402571-10.134705h40.867866c9.476607 0 18.624165 3.619537 25.336761 10.134705s10.463753 15.333676 10.463753 24.547043v45.869409z" fill="#ffffff" p-id="2535"></path></svg>