<?xml version="1.0" standalone="no"?><!DOCTYPE svg PUBLIC "-//W3C//DTD SVG 1.1//EN" "http://www.w3.org/Graphics/SVG/1.1/DTD/svg11.dtd"><svg t="1543217121987" class="icon" style="" viewBox="0 0 1024 1024" version="1.1" xmlns="http://www.w3.org/2000/svg" p-id="2399" xmlns:xlink="http://www.w3.org/1999/xlink" width="32" height="32"><defs><style type="text/css"></style></defs><path d="M453.213 828.094c-209.132 0-379.423-170.212-379.503-379.447 0.080-209.325 170.371-379.658 379.582-379.696 209.286 0 379.583 170.291 379.658 379.623 0 209.263-170.291 379.521-379.737 379.521v0 0zM453.293 109.035c-187.139 0.039-339.418 152.374-339.5 339.612 0.081 187.124 152.359 339.337 339.419 339.337 187.278 0 339.653-152.254 339.653-339.412-0.074-187.198-152.374-339.539-339.573-339.539v0 0zM453.293 109.035z" p-id="2400" fill="#e6e6e6"></path><path d="M228.588 448.453h-40.108c0-146.028 118.865-264.832 264.813-264.832v40.085c-123.876-0.006-224.705 100.83-224.705 224.746v0 0zM228.588 448.453z" p-id="2401" fill="#e6e6e6"></path><path d="M929.489 960.198c-5.084 0-10.25-1.936-14.168-5.858l-223.226-223.203c-7.839-7.816-7.839-20.506 0-28.345 7.839-7.822 20.512-7.822 28.35 0l223.221 223.204c7.816 7.834 7.816 20.505 0 28.343-3.921 3.92-9.005 5.857-14.175 5.857v0 0zM929.489 960.198z" p-id="2402" fill="#e6e6e6"></path></svg>