<?xml version="1.0" standalone="no"?><!DOCTYPE svg PUBLIC "-//W3C//DTD SVG 1.1//EN" "http://www.w3.org/Graphics/SVG/1.1/DTD/svg11.dtd"><svg t="1536891897532" class="icon" style="" viewBox="0 0 1024 1024" version="1.1" xmlns="http://www.w3.org/2000/svg" p-id="3046" xmlns:xlink="http://www.w3.org/1999/xlink" width="32" height="32"><defs><style type="text/css"></style></defs><path d="M481.882353 963.764706C216.847059 963.764706 0 746.917647 0 481.882353S216.847059 0 481.882353 0s481.882353 216.847059 481.882353 481.882353-216.847059 481.882353-481.882353 481.882353z m250.578823-515.614118l-168.658823-168.658823c-19.275294-19.275294-48.188235-19.275294-67.463529 0s-19.275294 48.188235 0 67.463529l86.738823 86.738824H240.941176c-24.094118 0-48.188235 24.094118-48.188235 48.188235s24.094118 48.188235 48.188235 48.188235h342.136471l-86.738823 86.738824c-19.275294 19.275294-19.275294 48.188235 0 67.463529s48.188235 19.275294 67.463529 0l168.658823-168.658823c9.637647-9.637647 14.456471-24.094118 14.456471-33.731765 0-14.456471-4.818824-24.094118-14.456471-33.731765z" p-id="3047" fill="#26a2ff"></path></svg>