<?xml version="1.0" standalone="no"?><!DOCTYPE svg PUBLIC "-//W3C//DTD SVG 1.1//EN" "http://www.w3.org/Graphics/SVG/1.1/DTD/svg11.dtd"><svg t="1541052725390" class="icon" style="" viewBox="0 0 1024 1024" version="1.1" xmlns="http://www.w3.org/2000/svg" p-id="1884" xmlns:xlink="http://www.w3.org/1999/xlink" width="32" height="32"><defs><style type="text/css"></style></defs><path d="M533.0944 49.8688a462.1824 462.1824 0 0 0 0 924.2112A462.08 462.08 0 0 0 995.1744 512 462.08 462.08 0 0 0 533.0944 49.8688z m37.0176 722.0736H496.4352v-73.6256h73.6256v73.6256z m116.9408-326.912c-10.6496 20.1216-30.7712 42.3424-60.2112 66.816-29.44 24.4224-47.5648 43.8784-54.272 58.4192s-10.0352 38.6048-10.0352 72.3968H499.3024c0-44.544 5.2224-77.2096 15.4624-97.8944 10.2912-20.736 29.2864-42.8544 56.9344-66.304s44.9024-41.5232 51.5584-54.1184c6.7072-12.544 10.0864-25.9072 10.0864-40.0384 0-27.5456-9.1648-50.176-27.3408-68.0448-18.1248-17.8688-42.0352-26.7776-71.4752-26.7776-57.4464 0-91.2384 33.0752-101.3248 99.1744H363.2128c4.0448-46.6432 21.5552-83.712 52.5824-111.1552 30.976-27.4432 70.3488-41.1648 118.016-41.1648 50.5344 0 91.392 13.4656 122.5216 40.448 31.1296 26.9312 46.6944 61.2864 46.6944 102.912a138.7008 138.7008 0 0 1-15.9744 65.3312z" fill="#EB6667" p-id="1885"></path></svg>