<?xml version="1.0" standalone="no"?><!DOCTYPE svg PUBLIC "-//W3C//DTD SVG 1.1//EN" "http://www.w3.org/Graphics/SVG/1.1/DTD/svg11.dtd"><svg t="1543909037675" class="icon" style="" viewBox="0 0 1024 1024" version="1.1" xmlns="http://www.w3.org/2000/svg" p-id="21848" xmlns:xlink="http://www.w3.org/1999/xlink" width="64" height="64"><defs><style type="text/css"></style></defs><path d="M934.6048 411.6992H281.6v-76.8c0-132.1728 110.6176-239.2832 242.9184-239.2832 117.1712 0 219.1872 87.2448 236.9536 203.2384a48.1792 48.1792 0 0 0 54.4 40.2176 48.128 48.128 0 0 0 40.2688-54.3232C831.5392 122.24 688.768 0 524.5184 0 339.4048 0 179.2 150.4512 179.2 334.8992v76.8H114.9952A64 64 0 0 0 51.2 475.4176V960.256A64.0512 64.0512 0 0 0 114.9952 1024h819.6096A64.0512 64.0512 0 0 0 998.4 960.256V475.4176a64 64 0 0 0-63.7952-63.7184z" fill="#79C1BB" p-id="21849"></path><path d="M734.5408 759.936a199.04 199.04 0 0 1-75.8272 134.272 199.3984 199.3984 0 0 1-148.5824 41.2672 199.3728 199.3728 0 0 1-134.4-75.7504 197.376 197.376 0 0 1-41.3184-148.352c13.6192-110.2592 114.048-189.1584 224.4096-175.5392a198.656 198.656 0 0 1 60.1344 17.2288c-3.6608-18.2784 8.3712-36.0448 26.7008-40.2432a34.7392 34.7392 0 0 1 41.2928 26.1376l18.8416 85.6832c2.0736 9.4208 0 18.816-5.248 26.6496a34.2272 34.2272 0 0 1-22.9888 14.6432l-82.1248 13.056c-2.0736 0.5376-3.6608 0.5376-5.76 0.5376a34.304 34.304 0 0 1-33.9968-29.2864c-3.1488-17.7408 8.3712-34.4832 25.6256-39.168a122.0608 122.0608 0 0 0-30.336-7.3216 132.4288 132.4288 0 0 0-147.5072 115.4816 131.2768 131.2768 0 0 0 27.2128 97.6896 132.4288 132.4288 0 0 0 88.3968 49.6384 131.712 131.712 0 0 0 97.792-27.1872 132.1728 132.1728 0 0 0 49.664-88.2944c2.0992-18.7904 19.3536-32.384 38.7328-30.2848 18.3296 3.0976 31.9232 20.352 29.2864 39.1424z" fill="#FFFFFF" p-id="21850"></path></svg>