<?xml version="1.0" standalone="no"?><!DOCTYPE svg PUBLIC "-//W3C//DTD SVG 1.1//EN"
  "http://www.w3.org/Graphics/SVG/1.1/DTD/svg11.dtd">
<svg t="1536657847805" class="icon" style="" viewBox="0 0 1024 1024" version="1.1" xmlns="http://www.w3.org/2000/svg"
     p-id="1892" xmlns:xlink="http://www.w3.org/1999/xlink" width="32" height="32">
  <defs>
    <style type="text/css"></style>
  </defs>
  <path
    d="M653.653333 244.053333c3.413333-5.12 5.12-11.946667 1.706667-17.066666-3.413333-5.12-8.533333-10.24-15.36-10.24H192.853333c-6.826667 0-11.946667 3.413333-15.36 10.24-3.413333 5.12-1.706667 11.946667 1.706667 17.066666l160.426667 209.92c1.706667 1.706667 3.413333 3.413333 5.12 3.413334v339.626666c0 6.826667 3.413333 11.946667 10.24 15.36 1.706667 1.706667 5.12 1.706667 6.826666 1.706667 3.413333 0 6.826667-1.706667 10.24-3.413333l110.933334-85.333334c3.413333-3.413333 6.826667-8.533333 6.826666-13.653333V457.386667c1.706667-1.706667 3.413333-1.706667 5.12-3.413334l158.72-209.92z m-426.666666 6.826667h378.88L471.04 426.666667h-110.933333l-133.12-175.786667z m226.986666 452.266667l-76.8 59.733333V460.8h76.8v242.346667z"
    p-id="1893" fill="#666"></path>
  <path
    d="M873.813333 460.8H588.8c-10.24 0-17.066667 6.826667-17.066667 17.066667s6.826667 17.066667 17.066667 17.066666h286.72c10.24 0 17.066667-6.826667 17.066667-17.066666s-8.533333-17.066667-18.773334-17.066667zM873.813333 588.8H588.8c-10.24 0-17.066667 6.826667-17.066667 17.066667s6.826667 17.066667 17.066667 17.066666h286.72c10.24 0 17.066667-6.826667 17.066667-17.066666s-8.533333-17.066667-18.773334-17.066667zM873.813333 716.8H588.8c-10.24 0-17.066667 6.826667-17.066667 17.066667s6.826667 17.066667 17.066667 17.066666h286.72c10.24 0 17.066667-6.826667 17.066667-17.066666s-8.533333-17.066667-18.773334-17.066667z"
    p-id="1894" fill="#666"></path>
  <path
    d="M892.586667 52.906667H174.08c-47.786667 0-85.333333 37.546667-85.333333 85.333333v713.386667c0 47.786667 37.546667 85.333333 85.333333 85.333333h718.506667c47.786667 0 85.333333-37.546667 85.333333-85.333333V138.24c0-46.08-37.546667-85.333333-85.333333-85.333333z m51.2 798.72c0 29.013333-22.186667 51.2-51.2 51.2H174.08c-29.013333 0-51.2-22.186667-51.2-51.2V138.24c0-29.013333 22.186667-51.2 51.2-51.2h718.506667c29.013333 0 51.2 22.186667 51.2 51.2v713.386667z"
    p-id="1895" fill="#666"></path>
</svg>
