<?xml version="1.0" standalone="no"?><!DOCTYPE svg PUBLIC "-//W3C//DTD SVG 1.1//EN"
  "http://www.w3.org/Graphics/SVG/1.1/DTD/svg11.dtd">
<svg t="1534820546703" class="icon" style="" viewBox="0 0 1024 1024" version="1.1" xmlns="http://www.w3.org/2000/svg"
     p-id="1524" xmlns:xlink="http://www.w3.org/1999/xlink" width="64" height="64">
  <defs>
    <style type="text/css"></style>
  </defs>
  <path
    d="M480 352c-105.888 0-192 86.112-192 192s86.112 192 192 192 192-86.112 192-192-86.112-192-192-192z m0 320c-70.592 0-128-57.408-128-128s57.408-128 128-128 128 57.408 128 128-57.408 128-128 128z"
    p-id="1525" fill="#aaaaaa"></path>
  <path
    d="M576 832H160c-17.632 0-32-14.336-32-32V288c0-17.632 14.368-32 32-32h96c17.664 0 32-14.336 32-32s-14.336-32-32-32h-96c-52.928 0-96 43.072-96 96v512c0 52.928 43.072 96 96 96h416c17.696 0 32-14.304 32-32s-14.304-32-32-32zM512 256h320c17.664 0 32 14.368 32 32v256c0 17.696 14.304 32 32 32s32-14.304 32-32V288c0-52.928-43.072-96-96-96H512c-17.664 0-32 14.336-32 32s14.336 32 32 32z"
    p-id="1526" fill="#aaaaaa"></path>
  <path
    d="M736 336a1.5 1.5 0 1 0 96 0 1.5 1.5 0 1 0-96 0zM320 160h128c17.696 0 32-14.304 32-32s-14.304-32-32-32H320c-17.696 0-32 14.304-32 32s14.304 32 32 32zM960 768h-96v-96c0-17.696-14.304-32-32-32s-32 14.304-32 32v96h-96c-17.696 0-32 14.304-32 32s14.304 32 32 32h96v96c0 17.696 14.304 32 32 32s32-14.304 32-32v-96h96c17.696 0 32-14.304 32-32s-14.304-32-32-32z"
    p-id="1527" fill="#aaaaaa"></path>
</svg>
